<svg width="2088" height="2088" viewBox="0 0 2088 2088" fill="none" xmlns="http://www.w3.org/2000/svg">
<rect width="2088" height="2088" rx="300" fill="#FFD342"/>
<path d="M876.578 430.712C1178.15 -59.9146 1481.13 185 1481.13 185C1292 161 1075.2 179.679 1075.2 601C1075.2 842.062 1208 1023.87 1495.32 943.344C1263.42 1175.9 1116.28 990.857 1075.2 1023.87C1034.12 1056.87 1068.92 1116.89 1116.28 1116.89C1163.63 1116.89 1578.5 1127.5 1481.13 1321.5C1383.76 1515.5 721.633 1631 562.133 1207.5C562.133 1207.5 948.133 1449.99 1169.13 1321.5C1390.13 1193.01 760.133 1313 621.133 1177.5C482.133 1042 575.005 921.339 876.578 430.712Z" fill="#3673A5"/>
<circle cx="896.493" cy="408.135" r="123.5" fill="white" stroke="#3673A5" stroke-width="40"/>
<circle cx="913.493" cy="379.135" r="28.5" fill="#3673A5"/>
<path d="M1300.46 191.013L1350.47 168.223C1349.08 247.531 1342.92 320.258 1332.52 395.944C1329.34 320.274 1321.4 254.879 1300.46 191.013Z" fill="#3673A5" stroke="#3673A5" stroke-width="20"/>
<path d="M1362.55 967.117L1325.26 962.65C1350.02 915.988 1360.27 879.291 1365.64 839.489C1369.28 878.823 1368.51 916.21 1362.55 967.117Z" fill="#3673A5" stroke="#3673A5" stroke-width="20"/>
<path d="M1269.17 659.223C1181.12 673.012 1113.3 659.247 1045.15 619.039C1051.96 625.045 1038.35 661.135 1044.79 666.493C1120.7 724.51 1220.79 703.748 1294.55 678.201C1417.58 635.592 1443.42 565.982 1497.27 447.475C1441.97 550.451 1400.89 620.773 1269.17 659.223Z" fill="#3673A5" stroke="#3673A5" stroke-width="2" stroke-linecap="round"/>
<path d="M1400.7 662.361C1357.74 646.672 1336.42 655.62 1298.2 668.831C1302.22 666.52 1279.78 664.386 1283.54 662.361C1328.84 637.968 1375.72 630.643 1410.35 650.76C1468.11 684.315 1480.78 719.6 1496.33 784.048C1478.53 727.194 1463.25 694.714 1400.7 662.361Z" fill="#3673A5" stroke="#3673A5" stroke-width="2" stroke-linecap="round"/>
<path d="M558 1629H1496V1955H558V1629Z" fill="#FF6200"/>
</svg>
